<mxfile host="app.diagrams.net" modified="2021-10-17T18:38:02.885Z" agent="5.0 (X11; Linux x86_64) AppleWebKit/537.36 (KHTML, like Gecko) Chrome/94.0.4606.81 Safari/537.36" etag="C77FTNE6sg6anaPS0Ewa" version="15.5.4" type="github">
  <diagram id="DTxU9G36pprlfwnsf_tH" name="Страница 1">
    <mxGraphModel dx="882" dy="689" grid="1" gridSize="10" guides="1" tooltips="1" connect="1" arrows="1" fold="1" page="1" pageScale="1" pageWidth="827" pageHeight="1169" math="0" shadow="0">
      <root>
        <mxCell id="0" />
        <mxCell id="1" parent="0" />
        <mxCell id="T6zFFAo91-9FR3ZIcrCm-3" value="ночевка" style="html=1;shadow=0;dashed=0;align=center;verticalAlign=middle;shape=mxgraph.arrows2.arrow;dy=0;dx=10;notch=10;fillColor=#1ba1e2;strokeColor=#006EAF;fontColor=#ffffff;" vertex="1" parent="1">
          <mxGeometry x="710" y="20" width="100" height="30" as="geometry" />
        </mxCell>
        <mxCell id="T6zFFAo91-9FR3ZIcrCm-4" value="природа" style="html=1;shadow=0;dashed=0;align=center;verticalAlign=middle;shape=mxgraph.arrows2.arrow;dy=0;dx=10;notch=10;fillColor=#008a00;strokeColor=#005700;fontColor=#ffffff;" vertex="1" parent="1">
          <mxGeometry x="710" y="50" width="100" height="30" as="geometry" />
        </mxCell>
        <mxCell id="T6zFFAo91-9FR3ZIcrCm-5" value="семейные" style="html=1;shadow=0;dashed=0;align=center;verticalAlign=middle;shape=mxgraph.arrows2.arrow;dy=0;dx=10;notch=10;fillColor=#d80073;strokeColor=#A50040;fontColor=#ffffff;" vertex="1" parent="1">
          <mxGeometry x="710" y="80" width="100" height="30" as="geometry" />
        </mxCell>
        <mxCell id="T6zFFAo91-9FR3ZIcrCm-6" value="алкоголики" style="html=1;shadow=0;dashed=0;align=center;verticalAlign=middle;shape=mxgraph.arrows2.arrow;dy=0;dx=10;notch=10;fillColor=#a20025;strokeColor=#6F0000;fontColor=#ffffff;" vertex="1" parent="1">
          <mxGeometry x="710" y="110" width="100" height="30" as="geometry" />
        </mxCell>
        <mxCell id="T6zFFAo91-9FR3ZIcrCm-7" value="алкоголики" style="html=1;shadow=0;dashed=0;align=center;verticalAlign=middle;shape=mxgraph.arrows2.arrow;dy=0;dx=10;notch=10;fillColor=#e3c800;strokeColor=#B09500;fontColor=#000000;" vertex="1" parent="1">
          <mxGeometry x="710" y="140" width="100" height="30" as="geometry" />
        </mxCell>
      </root>
    </mxGraphModel>
  </diagram>
</mxfile>
